<?xml version="1.0" standalone="no"?>
<!DOCTYPE svg PUBLIC "-//W3C//DTD SVG 20010904//EN"
 "http://www.w3.org/TR/2001/REC-SVG-20010904/DTD/svg10.dtd">
<svg version="1.0" xmlns="http://www.w3.org/2000/svg"
 width="30px" height="40px" viewBox="0 0 512.000000 512.000000"
 preserveAspectRatio="xMidYMid meet">

<g transform="translate(0.000000,512.000000) scale(0.100000,-0.100000)"
fill="yellow" stroke="none">
<path d="M2504 4028 c-41 -45 -254 -381 -254 -400 0 -10 11 -30 25 -43 20 -21
34 -25 80 -25 l55 0 0 -133 c0 -150 12 -187 70 -221 43 -26 113 -25 147 0 62
47 68 64 71 215 l4 139 54 0 c41 0 59 5 74 20 40 40 27 72 -108 275 -122 182
-128 190 -162 193 -27 2 -41 -3 -56 -20z"/>
<path d="M2470 2864 c-56 -47 -60 -66 -60 -259 0 -200 7 -229 67 -266 47 -29
131 -23 169 12 47 43 54 75 54 256 0 140 -3 174 -18 203 -39 79 -148 107 -212
54z"/>
<path d="M1343 2400 c-67 -40 -90 -118 -55 -186 25 -48 237 -259 276 -273 65
-25 142 -2 176 54 24 38 26 104 6 143 -17 32 -242 255 -273 271 -33 17 -95 13
-130 -9z"/>
<path d="M3623 2404 c-17 -9 -83 -69 -146 -133 -137 -140 -153 -172 -121 -248
22 -54 55 -81 106 -89 66 -11 88 2 226 139 141 140 161 172 143 234 -14 49
-30 73 -64 93 -38 24 -100 25 -144 4z"/>
<path d="M2395 2176 c-239 -39 -435 -144 -601 -320 -123 -129 -215 -292 -254
-448 l-12 -47 -712 -3 c-688 -3 -712 -4 -744 -23 -43 -26 -76 -95 -69 -142 8
-46 30 -79 70 -103 31 -20 71 -20 2488 -20 l2456 0 34 23 c90 60 88 172 -5
241 -27 21 -38 21 -746 24 l-719 3 -25 83 c-111 363 -418 643 -791 722 -100
21 -275 26 -370 10z m380 -316 c235 -74 413 -241 490 -459 l14 -41 -724 0
c-571 0 -725 3 -725 12 0 7 21 55 46 105 101 203 286 347 514 398 95 22 293
14 385 -15z"/>
</g>
</svg>
